<?xml version="1.0" encoding="utf-8"?>
<!-- Generator: Adobe Illustrator 21.0.0, SVG Export Plug-In . SVG Version: 6.00 Build 0)  -->
<svg version="1.1" id="Layer_1" xmlns="http://www.w3.org/2000/svg" xmlns:xlink="http://www.w3.org/1999/xlink" x="0px" y="0px"
	 viewBox="0 0 640 512" style="enable-background:new 0 0 640 512;" xml:space="preserve">
<style type="text/css">
	.st0{fill:#D47A29;}
</style>
<path class="st0" d="M544,160v64h32v64h-32v64H64V160H544 M560,96H48c-26.5,0-48,21.5-48,48v224c0,26.5,21.5,48,48,48h512
	c26.5,0,48-21.5,48-48v-16h8c13.3,0,24-10.7,24-24V184c0-13.3-10.7-24-24-24h-8v-16C608,117.5,586.5,96,560,96z M416,192H96v128h320
	V192z"/>
</svg>
