<?xml version="1.0" encoding="utf-8"?>
<!-- Generator: Adobe Illustrator 21.0.0, SVG Export Plug-In . SVG Version: 6.00 Build 0)  -->
<svg version="1.1" id="Layer_1" xmlns="http://www.w3.org/2000/svg" xmlns:xlink="http://www.w3.org/1999/xlink" x="0px" y="0px"
	 viewBox="0 0 512 512" style="enable-background:new 0 0 512 512;" xml:space="preserve">
<style type="text/css">
	.st0{fill:#D47A29;}
</style>
<path class="st0" d="M440.5,88.5l-52,52L415,167c9.4,9.4,9.4,24.6,0,33.9l-17.4,17.4c11.8,26.1,18.4,55.1,18.4,85.6
	c0,114.9-93.1,208-208,208S0,418.9,0,304S93.1,96,208,96c30.5,0,59.5,6.6,85.6,18.4L311,97c9.4-9.4,24.6-9.4,33.9,0l26.5,26.5l52-52
	L440.5,88.5z M500,60h-24c-6.6,0-12,5.4-12,12s5.4,12,12,12h24c6.6,0,12-5.4,12-12S506.6,60,500,60z M440,0c-6.6,0-12,5.4-12,12v24
	c0,6.6,5.4,12,12,12s12-5.4,12-12V12C452,5.4,446.6,0,440,0z M473.9,55l17-17c4.7-4.7,4.7-12.3,0-17s-12.3-4.7-17,0l-17,17
	c-4.7,4.7-4.7,12.3,0,17C461.7,59.7,469.3,59.7,473.9,55z M406.1,55c4.7,4.7,12.3,4.7,17,0s4.7-12.3,0-17l-17-17
	c-4.7-4.7-12.3-4.7-17,0s-4.7,12.3,0,17L406.1,55z M473.9,89c-4.7-4.7-12.3-4.7-17,0s-4.7,12.3,0,17l17,17c4.7,4.7,12.3,4.7,17,0
	s4.7-12.3,0-17L473.9,89z M112,272c0-35.3,28.7-64,64-64c8.8,0,16-7.2,16-16s-7.2-16-16-16c-52.9,0-96,43.1-96,96
	c0,8.8,7.2,16,16,16S112,280.8,112,272z"/>
</svg>
