<?xml version="1.0" encoding="utf-8"?>
<!-- Generator: Adobe Illustrator 21.0.0, SVG Export Plug-In . SVG Version: 6.00 Build 0)  -->
<svg version="1.1" id="Layer_1" xmlns="http://www.w3.org/2000/svg" xmlns:xlink="http://www.w3.org/1999/xlink" x="0px" y="0px"
	 viewBox="0 0 640 512" style="enable-background:new 0 0 640 512;" xml:space="preserve">
<style type="text/css">
	.st0{fill:#D47A29;}
</style>
<path class="st0" d="M544,224l-128-16l-48-16h-24L227.2,44h39.5c11.7,0,21.3-2.6,21.3-6s-9.7-6-21.3-6H152v12h16v164h-48l-66.7-80
	H18.7L8,138.7V208h8v16h48v2.7l-64,8v42.7l64,8v2.7H16v16H8v69.3L18.7,384h34.7l66.7-80h48v164h-16v12h114.7c11.7,0,21.3-2.6,21.3-6
	s-9.7-6-21.3-6h-39.5L344,320h24l48-16l128-16c96-21.3,96-26.6,96-32S640,245.3,544,224z"/>
</svg>
