<?xml version="1.0" encoding="utf-8"?>
<!-- Generator: Adobe Illustrator 21.0.0, SVG Export Plug-In . SVG Version: 6.00 Build 0)  -->
<svg version="1.1" id="Layer_1" xmlns="http://www.w3.org/2000/svg" xmlns:xlink="http://www.w3.org/1999/xlink" x="0px" y="0px"
	 viewBox="0 0 640 512" style="enable-background:new 0 0 640 512;" xml:space="preserve">
<style type="text/css">
	.st0{fill:#D47A29;}
</style>
<path class="st0" d="M72,112H24c-13.3,0-24,10.7-24,24v208c0,13.3,10.7,24,24,24h48c13.3,0,24-10.7,24-24V136
	C96,122.7,85.3,112,72,112z M48,340c-11,0-20-9-20-20s9-20,20-20s20,9,20,20S59,340,48,340z M616,112h-48c-13.3,0-24,10.7-24,24v208
	c0,13.3,10.7,24,24,24h48c13.3,0,24-10.7,24-24V136C640,122.7,629.3,112,616,112z M592,340c-11,0-20-9-20-20s9-20,20-20s20,9,20,20
	S603,340,592,340z M485.9,92.7l42.1,48.1V320h-19.2c0.6-15-4.4-29-14-39.7l-80.9-98.9c2.9-3.2,2.8-8.2-0.4-11.2
	c-2.8-2.7-7.1-2.9-10.1-0.8c-0.4,0.3-60.4,62.9-60.4,62.9l-0.2,0.2c-23.9,26.9-66.1,26.2-89.1-1.4c-15.5-18.6-15.3-45.4,0.4-63.8
	l66.6-77.7c13.6-15.9,33.8-25.8,56-25.8h46C447,64,470,74.5,485.9,92.7z M482.6,290.6c15.5,16.8,12.6,43.8-2.4,57.8
	c-17.7,16.5-42.4,13-45.9,9.2c1.7,15.7-21.4,47.2-56.4,44.7c-6.3,21.2-32.3,38.9-59.2,29.6c-10.2,10.2-25.8,15-39.8,15
	c-28.7,0-54.9-12-72.6-30.8L112,320V135.5L173.4,85C186.8,71.5,205,64,223.9,64h37.4c16.7,0,32.7,6.8,44.2,18.8L242,157
	c-20.8,24.3-21.1,59.8-0.6,84.4c29.4,35.2,83,35.9,113.3,1.9l48.1-50.4L482.6,290.6z"/>
</svg>
